# xmcd
#
# Track frame offsets: 
#        150
#        17190
#        33206
#        46062
#        62993
#        81532
#        97707
#        111140
#        128357
#        143119
#        158218
#        168710
#
# Disc length: 2461 seconds
#
# Revision: 1
# Processed by: cddbd v1.5.2PL0 Copyright (c) Steve Scherf et al.
# Submitted via: ExactAudioCopy v1.1
#
DISCID=95099b0c
DTITLE=The Cash Box Kings - Holler and Stomp
DYEAR=2011
DGENRE=Chicago Blues, Delta Blues
TTITLE0=Holler and Stomp
TTITLE1=That's My Gal
TTITLE2=Off The Hook
TTITLE3=Feel Like Going Home
TTITLE4=Fraulein on Paulina
TTITLE5=Hayseed Strut
TTITLE6=Katie Mae
TTITLE7=Sara
TTITLE8=Barnyard Pimp
TTITLE9=Oh My Baby's Gone
TTITLE10=Blues Come Around
TTITLE11=Tribute To The Black Lone Ranger
EXTD=YEAR: 2011
EXTT0=
EXTT1=
EXTT2=
EXTT3=
EXTT4=
EXTT5=
EXTT6=
EXTT7=
EXTT8=
EXTT9=
EXTT10=
EXTT11=
PLAYORDER=
